<?xml version="1.0" encoding="UTF-8" standalone="no"?>
<!DOCTYPE svg PUBLIC "-//W3C//DTD SVG 1.1//EN" "http://www.w3.org/Graphics/SVG/1.1/DTD/svg11.dtd">
<svg width="100%" height="100%" viewBox="0 0 584 146" version="1.1" xmlns="http://www.w3.org/2000/svg" xmlns:xlink="http://www.w3.org/1999/xlink" xml:space="preserve" xmlns:serif="http://www.serif.com/" style="fill-rule:evenodd;clip-rule:evenodd;stroke-linejoin:round;stroke-miterlimit:2;">
    <g transform="matrix(1,0,0,1,-480,-420)">
        <g id="colored" transform="matrix(1,0,0,1,-1.13687e-13,-150)">
            <g transform="matrix(1.57629,0,0,0.985182,-696.94,-88.9406)">
                <rect x="746.651" y="670" width="13.638" height="112.853" style="fill:rgb(0,105,255);"/>
            </g>
            <g transform="matrix(1.57629,0,0,0.985182,-701.94,-88.9406)">
                <path d="M817.089,709.966C821.491,718.796 823.692,729.234 823.692,741.28C823.692,753.53 821.491,764.006 817.089,772.709C812.687,781.411 806.003,785.763 797.039,785.763C788.075,785.763 781.392,781.411 776.989,772.709C772.587,764.006 770.386,753.53 770.386,741.28C770.386,729.234 772.587,718.796 776.989,709.966C781.392,701.135 788.075,696.72 797.039,696.72C806.003,696.72 812.687,701.135 817.089,709.966ZM796.991,715.172C793.004,715.172 789.933,717.43 787.78,721.948C785.626,726.465 784.55,732.909 784.55,741.28C784.55,749.651 785.626,756.107 787.78,760.65C789.933,765.193 793.004,767.464 796.991,767.464C800.979,767.464 804.041,765.193 806.179,760.65C808.316,756.107 809.385,749.651 809.385,741.28C809.385,732.909 808.316,726.465 806.179,721.948C804.041,717.43 800.979,715.172 796.991,715.172Z" style="fill:rgb(0,105,255);"/>
            </g>
            <g transform="matrix(1.57629,0,0,0.985182,-702.94,-88.9406)">
                <path d="M848.192,797.477C849.66,799.467 852.132,800.463 855.609,800.463C860.522,800.463 863.808,797.834 865.467,792.577C866.551,789.208 867.094,783.542 867.094,775.58L867.094,770.22C865.786,773.793 864.382,776.473 862.883,778.259C860.171,781.577 856.646,783.236 852.308,783.236C845.608,783.236 840.257,779.472 836.253,771.943C832.25,764.414 830.248,754.219 830.248,741.356C830.248,728.953 832.178,718.528 836.038,710.08C839.898,701.633 845.369,697.409 852.451,697.409C855.067,697.409 857.348,698.047 859.294,699.323C862.612,701.518 865.291,705.551 867.333,711.42L867.333,699.4L880.588,699.4L880.588,778.566C880.588,789.335 879.455,797.451 877.19,802.913C873.299,812.304 865.834,817 854.796,817C848.129,817 842.689,814.907 838.479,810.722C834.268,806.536 831.939,800.284 831.492,791.964L846.326,791.964C846.709,794.516 847.331,796.354 848.192,797.477ZM845.896,754.372C847.746,761.416 851.063,764.938 855.849,764.938C859.039,764.938 861.734,763.011 863.936,759.157C866.137,755.303 867.237,749.166 867.237,740.744C867.237,732.832 866.193,726.809 864.103,722.675C862.014,718.541 859.214,716.473 855.705,716.473C850.92,716.473 847.618,720.072 845.8,727.269C844.843,731.097 844.364,735.818 844.364,741.433C844.364,746.282 844.875,750.595 845.896,754.372Z" style="fill:rgb(0,105,255);"/>
            </g>
            <g transform="matrix(1.57629,0,0,0.985182,-707.94,-88.9406)">
                <path d="M943.105,749.013C942.357,757.998 940.259,765.897 936.813,772.709C932.411,781.411 925.728,785.763 916.764,785.763C907.799,785.763 901.116,781.411 896.714,772.709C892.312,764.006 890.11,753.53 890.11,741.28C890.11,729.234 892.312,718.796 896.714,709.966C901.116,701.135 907.799,696.72 916.764,696.72C925.728,696.72 932.411,701.135 936.813,709.966C940.121,716.599 942.186,724.14 943.008,732.588L921.292,732.588L921.292,717.335L906.627,740.8L921.292,764.265L921.292,749.013L943.105,749.013Z" style="fill:rgb(0,105,255);"/>
            </g>
            <g transform="matrix(1.57629,0,0,0.985182,-707.94,-88.9406)">
                <path d="M983.016,732.588C983.839,724.14 985.904,716.599 989.211,709.966C993.613,701.135 1000.3,696.72 1009.26,696.72C1018.23,696.72 1024.91,701.135 1029.31,709.966C1033.71,718.796 1035.91,729.234 1035.91,741.28C1035.91,753.53 1033.71,764.006 1029.31,772.709C1024.91,781.411 1018.23,785.763 1009.26,785.763C1000.3,785.763 993.613,781.411 989.211,772.709C985.765,765.897 983.668,757.998 982.919,749.013L1005.36,749.013L1005.36,764.265L1020.02,740.8L1005.36,717.335L1005.36,732.588L983.016,732.588Z" style="fill:rgb(0,105,255);"/>
            </g>
            <g transform="matrix(0.89372,0,0,0.770576,-65.3056,324.947)">
                <rect x="966.072" y="399.5" width="23.969" height="21" style="fill:white;"/>
            </g>
            <g transform="matrix(1.57629,0,0,0.985182,-707.94,-88.9406)">
                <path d="M977.631,669.311L977.631,687.073C976.865,686.92 975.581,686.805 973.779,686.729C971.976,686.652 970.732,687.29 970.046,688.643C969.361,689.996 969.018,691.489 969.018,693.122L969.018,782.853L955.428,782.853L955.428,715.555L955.284,700.166L955.284,694.806C955.284,685.874 956.225,679.723 958.107,676.355C960.085,671.353 964.854,668.852 972.415,668.852C973.276,668.852 974.058,668.89 974.76,668.966C975.462,669.043 976.419,669.158 977.631,669.311Z" style="fill:rgb(0,105,255);"/>
            </g>
            <g transform="matrix(1.57629,0,0,0.985182,-714.94,-88.9406)">
                <path d="M1070.22,715.555C1065.6,715.555 1062.42,718.694 1060.7,724.972C1059.81,728.29 1059.36,732.526 1059.36,737.681L1059.36,782.853L1045.77,782.853L1045.77,699.553L1058.93,699.553L1058.93,711.727C1060.68,707.439 1062.34,704.351 1063.91,702.463C1066.71,699.094 1070.27,697.409 1074.58,697.409C1079.97,697.409 1084.38,699.668 1087.81,704.185C1091.24,708.702 1092.95,716.193 1092.95,726.656L1092.95,782.853L1078.98,782.853L1078.98,732.092C1078.98,727.703 1078.61,724.334 1077.88,721.986C1076.54,717.698 1073.99,715.555 1070.22,715.555Z" style="fill:rgb(0,105,255);"/>
            </g>
            <g transform="matrix(1.57629,0,0,0.985182,-716.94,-88.9406)">
                <path d="M1129.42,767.311L1129.42,783.619L1122.96,784.002C1116.51,784.359 1112.11,782.572 1109.75,778.642C1108.22,776.141 1107.45,772.288 1107.45,767.081L1107.45,715.708L1100.18,715.708L1100.18,700.166L1107.45,700.166L1107.45,676.891L1120.95,676.891L1120.95,700.166L1129.42,700.166L1129.42,715.708L1120.95,715.708L1120.95,759.808C1120.95,763.228 1121.22,765.359 1121.76,766.201C1122.3,767.043 1123.96,767.464 1126.74,767.464C1127.15,767.464 1127.59,767.451 1128.05,767.426C1128.52,767.4 1128.97,767.362 1129.42,767.311Z" style="fill:rgb(0,105,255);"/>
            </g>
        </g>
    </g>
</svg>
