<?xml version="1.0" encoding="UTF-8" standalone="no"?>
<!DOCTYPE svg PUBLIC "-//W3C//DTD SVG 1.1//EN" "http://www.w3.org/Graphics/SVG/1.1/DTD/svg11.dtd">
<svg width="100%" height="100%" viewBox="0 0 555 133" version="1.1" xmlns="http://www.w3.org/2000/svg" xmlns:xlink="http://www.w3.org/1999/xlink" xml:space="preserve" xmlns:serif="http://www.serif.com/" style="fill-rule:evenodd;clip-rule:evenodd;stroke-linejoin:round;stroke-miterlimit:2;">
    <g transform="matrix(1,0,0,1,-685.08,-438.624)">
        <g id="Text">
            <g transform="matrix(0.72449,0,0,0.65,226.536,191.624)">
                <path d="M729.318,506.055L662.734,506.055L662.734,380L632.919,380L632.919,535.963L729.318,535.963L729.318,506.055Z" style="fill-rule:nonzero;"/>
            </g>
            <g transform="matrix(0.72449,0,0,0.65,224.384,190.184)">
                <path d="M744.225,480.135C744.225,517.354 762.511,538.178 794.512,538.178C826.512,538.178 844.798,517.354 844.798,480.135C844.798,442.917 826.711,422.092 794.512,422.092C762.511,422.092 744.225,442.917 744.225,480.135ZM772.052,480.135C772.052,460.862 780.201,450.006 794.512,450.006C808.823,450.006 816.972,460.862 816.972,480.135C816.972,499.409 808.823,510.265 794.512,510.265C780.201,510.265 772.052,499.409 772.052,480.135Z" style="fill-rule:nonzero;"/>
            </g>
            <g transform="matrix(0.72449,0,0,0.65,222.192,193)">
                <path d="M858.711,511.594C858.711,519.569 861.892,525.772 868.053,529.982C857.718,533.969 852.749,540.837 852.749,551.249C852.749,571.631 869.445,582.486 901.246,582.486L902.24,582.486C938.414,582.486 955.11,571.188 955.11,546.818C955.11,523.335 941.595,511.151 915.358,511.151L892.501,511.151C886.538,511.151 883.557,508.935 883.557,504.283C883.557,500.738 885.147,498.745 888.526,497.858C892.699,498.745 897.271,499.188 902.041,499.188C928.874,499.188 945.172,484.788 945.172,460.64L945.172,453.772C945.172,451.114 946.365,450.006 948.75,450.006L958.887,450.006L958.887,422.757C956.104,422.314 952.924,422.092 950.141,422.092C945.769,422.092 940.203,422.978 936.228,424.308L927.085,445.575L922.315,445.575L921.719,442.695C918.936,428.96 909.992,422.092 895.085,422.092C872.823,422.092 858.711,436.935 858.711,460.64C858.711,475.04 864.277,485.674 874.414,492.32C863.879,495.643 858.711,501.846 858.711,511.594ZM883.557,460.64C883.557,450.892 890.314,445.575 902.041,445.575C913.768,445.575 920.327,450.892 920.327,460.64C920.327,470.388 913.768,475.705 902.041,475.705C890.314,475.705 883.557,470.388 883.557,460.64ZM897.072,557.895C882.563,557.895 876.6,554.572 876.6,546.818C876.6,539.951 882.364,535.742 892.103,535.742L913.371,535.742C923.706,535.742 929.271,539.508 929.271,546.818C929.271,554.572 923.11,557.895 908.402,557.895L897.072,557.895Z" style="fill-rule:nonzero;"/>
            </g>
            <g transform="matrix(0.72449,0,0,0.65,219.536,190.184)">
                <path d="M966.837,480.135C966.837,517.354 985.123,538.178 1017.12,538.178C1049.12,538.178 1067.41,517.354 1067.41,480.135C1067.41,442.917 1049.32,422.092 1017.12,422.092C985.123,422.092 966.837,442.917 966.837,480.135Z" style="fill-rule:nonzero;"/>
            </g>
            <g transform="matrix(0.72449,0,0,0.65,206.512,191.624)">
                <path d="M1095.24,424.308L1095.24,535.963L1124.06,535.963L1124.06,423.2C1124.06,412.788 1128.63,407.914 1137.97,407.914L1154.67,407.914L1154.67,380L1136.98,380C1110.14,380 1095.24,394.4 1095.24,424.308Z" style="fill-rule:nonzero;"/>
            </g>
            <g transform="matrix(0.72449,0,0,0.65,185.384,190.184)">
                <path d="M1163.61,480.135C1163.61,517.354 1181.9,538.178 1213.9,538.178C1245.9,538.178 1264.18,517.354 1264.18,480.135C1264.18,442.917 1246.1,422.092 1213.9,422.092C1181.9,422.092 1163.61,442.917 1163.61,480.135Z" style="fill-rule:nonzero;"/>
            </g>
            <g transform="matrix(0.72449,0,0,0.65,179.296,191.624)">
                <path d="M1331.76,450.006C1346.27,450.006 1352.43,458.425 1352.43,478.806L1352.43,535.963L1381.25,535.963L1381.25,473.268C1381.25,437.378 1369.73,422.092 1342.5,422.092C1336.33,422.092 1330.37,422.757 1324.61,424.308L1314.47,447.791L1308.9,447.791L1308.9,424.308L1282.07,424.308L1282.07,535.963L1310.89,535.963L1310.89,478.806C1310.89,458.646 1317.05,450.006 1331.76,450.006Z" style="fill-rule:nonzero;"/>
            </g>
            <g transform="matrix(0.72449,0,0,0.65,173.92,193)">
                <path d="M1440.88,490.548L1440.88,452.222L1471.49,452.222L1471.49,424.308L1440.88,424.308L1440.88,393.292L1412.06,393.292L1412.06,424.308L1394.17,424.308L1394.17,452.222L1412.06,452.222L1412.06,491.655C1412.06,521.563 1426.97,535.963 1453.8,535.963L1471.49,535.963L1471.49,508.049L1456.78,508.049C1446.25,508.049 1440.88,502.289 1440.88,490.548Z" style="fill-rule:nonzero;"/>
            </g>
        </g>
        <g id="arrow">
            <g transform="matrix(1.04617,0,0,1.54612,-48.9386,-278.047)">
                <rect x="954.854" y="500" width="105.146" height="9.392" style="fill:white;"/>
            </g>
            <g transform="matrix(-8.55973e-17,-1.39791,-1,6.12323e-17,1639,1942.12)">
                <path d="M1030,560L1040,580L1020,580L1030,560Z" style="fill:white;"/>
            </g>
            <g transform="matrix(8.55973e-17,1.39791,1,-6.12323e-17,380,-937.576)">
                <path d="M1030,560L1040,580L1020,580L1030,560Z" style="fill:white;"/>
            </g>
        </g>
    </g>
</svg>
